<svg xmlns="http://www.w3.org/2000/svg" xmlns:xlink="http://www.w3.org/1999/xlink" width="800" zoomAndPan="magnify" viewBox="0 0 600 225" height="300" preserveAspectRatio="xMidYMid meet" version="1.0"><defs><g/><clipPath id="f9a1ab53ef"><path d="M 465 5.019531 L 539 5.019531 L 539 78 L 465 78 Z M 465 5.019531 " clip-rule="nonzero"/></clipPath><clipPath id="7945e2ee11"><path d="M 415.382812 41 L 488 41 L 488 114 L 415.382812 114 Z M 415.382812 41 " clip-rule="nonzero"/></clipPath></defs><g fill="#dd3577" fill-opacity="1"><g transform="translate(-9.219255, 213.962357)"><g><path d="M 10.546875 -133.625 C 10.546875 -141.820312 12.976562 -149.378906 17.84375 -156.296875 C 22.707031 -163.210938 29.828125 -168.78125 39.203125 -173 C 48.578125 -177.21875 60.003906 -179.328125 73.484375 -179.328125 C 84.273438 -179.328125 93.625 -178.5625 101.53125 -177.03125 C 109.445312 -175.507812 116.800781 -173.578125 123.59375 -171.234375 L 123.59375 -147.6875 L 121.84375 -147.6875 C 121.84375 -147.6875 121.375 -148.679688 120.4375 -150.671875 C 119.5 -152.660156 117.914062 -155.117188 115.6875 -158.046875 C 113.457031 -160.984375 110.492188 -163.914062 106.796875 -166.84375 C 103.109375 -169.769531 98.507812 -172.226562 93 -174.21875 C 87.488281 -176.21875 80.984375 -177.21875 73.484375 -177.21875 C 62.585938 -177.21875 53.359375 -175.28125 45.796875 -171.40625 C 38.234375 -167.539062 32.519531 -162.617188 28.65625 -156.640625 C 24.789062 -150.671875 22.859375 -144.40625 22.859375 -137.84375 C 22.859375 -131.863281 24.410156 -126.765625 27.515625 -122.546875 C 30.617188 -118.328125 34.835938 -114.691406 40.171875 -111.640625 C 45.503906 -108.585938 51.453125 -105.890625 58.015625 -103.546875 C 64.578125 -101.203125 71.375 -98.859375 78.40625 -96.515625 C 85.445312 -94.171875 92.25 -91.617188 98.8125 -88.859375 C 105.375 -86.109375 111.320312 -82.800781 116.65625 -78.9375 C 121.988281 -75.070312 126.207031 -70.410156 129.3125 -64.953125 C 132.414062 -59.503906 133.96875 -52.914062 133.96875 -45.1875 C 133.96875 -39.09375 132.441406 -33.144531 129.390625 -27.34375 C 126.347656 -21.539062 121.953125 -16.320312 116.203125 -11.6875 C 110.460938 -7.0625 103.546875 -3.367188 95.453125 -0.609375 C 87.367188 2.140625 78.234375 3.515625 68.046875 3.515625 C 60.304688 3.515625 52.921875 2.398438 45.890625 0.171875 C 38.859375 -2.054688 32.410156 -4.835938 26.546875 -8.171875 C 20.679688 -11.515625 15.582031 -14.769531 11.25 -17.9375 L 11.25 -41.484375 L 13.015625 -41.484375 C 13.015625 -41.484375 13.921875 -40.078125 15.734375 -37.265625 C 17.546875 -34.453125 20.238281 -30.960938 23.8125 -26.796875 C 27.394531 -22.640625 31.789062 -18.484375 37 -14.328125 C 42.21875 -10.171875 48.253906 -6.679688 55.109375 -3.859375 C 61.972656 -1.046875 69.566406 0.359375 77.890625 0.359375 C 84.328125 0.359375 90.328125 -0.695312 95.890625 -2.8125 C 101.460938 -4.925781 106.328125 -7.796875 110.484375 -11.421875 C 114.648438 -15.054688 117.90625 -19.160156 120.25 -23.734375 C 122.59375 -28.304688 123.765625 -33.050781 123.765625 -37.96875 C 123.765625 -44.539062 122.179688 -50.195312 119.015625 -54.9375 C 115.859375 -59.6875 111.582031 -63.757812 106.1875 -67.15625 C 100.800781 -70.5625 94.738281 -73.609375 88 -76.296875 C 81.257812 -78.992188 74.3125 -81.570312 67.15625 -84.03125 C 60.007812 -86.5 53.066406 -89.140625 46.328125 -91.953125 C 39.585938 -94.765625 33.519531 -98.015625 28.125 -101.703125 C 22.738281 -105.398438 18.460938 -109.851562 15.296875 -115.0625 C 12.128906 -120.28125 10.546875 -126.46875 10.546875 -133.625 Z M 10.546875 -133.625 "/></g></g></g><g fill="#dd3577" fill-opacity="1"><g transform="translate(139.849497, 213.962357)"><g><path d="M 5.28125 -175.8125 L 128.171875 -175.8125 L 128.171875 -152.078125 L 126.40625 -152.078125 C 126.40625 -152.304688 126.429688 -152.390625 126.484375 -152.328125 C 126.546875 -152.273438 126.578125 -152.425781 126.578125 -152.78125 C 126.578125 -156.769531 124.320312 -160.34375 119.8125 -163.5 C 115.300781 -166.664062 109.085938 -169.210938 101.171875 -171.140625 C 93.265625 -173.078125 84.269531 -174.046875 74.1875 -174.046875 L 74.1875 -48.875 C 74.1875 -37.382812 74.363281 -28.179688 74.71875 -21.265625 C 75.070312 -14.359375 76.273438 -9.378906 78.328125 -6.328125 C 80.378906 -3.285156 83.925781 -1.765625 88.96875 -1.765625 L 88.96875 0 L 43.078125 0 L 43.078125 -1.765625 C 48.117188 -1.765625 51.78125 -3.285156 54.0625 -6.328125 C 56.34375 -9.378906 57.773438 -14.359375 58.359375 -21.265625 C 58.953125 -28.179688 59.25 -37.382812 59.25 -48.875 L 59.25 -174.046875 C 49.164062 -174.046875 40.164062 -173.078125 32.25 -171.140625 C 24.34375 -169.210938 18.132812 -166.664062 13.625 -163.5 C 9.113281 -160.34375 6.859375 -156.769531 6.859375 -152.78125 C 6.859375 -152.425781 6.882812 -152.273438 6.9375 -152.328125 C 7 -152.390625 7.03125 -152.304688 7.03125 -152.078125 L 5.28125 -152.078125 Z M 5.28125 -175.8125 "/></g></g></g><g fill="#dd3577" fill-opacity="1"><g transform="translate(277.843621, 213.962357)"><g><path d="M 5.28125 -30.765625 C 5.28125 -38.035156 6.976562 -44.570312 10.375 -50.375 C 13.769531 -56.175781 18.132812 -61.445312 23.46875 -66.1875 C 28.800781 -70.9375 34.457031 -75.273438 40.4375 -79.203125 C 46.414062 -83.128906 52.070312 -86.757812 57.40625 -90.09375 C 62.738281 -93.4375 67.101562 -96.628906 70.5 -99.671875 C 73.894531 -102.722656 75.59375 -105.773438 75.59375 -108.828125 C 75.59375 -110.472656 75.179688 -111.675781 74.359375 -112.4375 C 73.546875 -113.195312 72.550781 -113.578125 71.375 -113.578125 C 69.269531 -113.578125 67.304688 -112.640625 65.484375 -110.765625 C 63.671875 -108.890625 61.882812 -106.75 60.125 -104.34375 C 58.363281 -101.9375 56.457031 -99.796875 54.40625 -97.921875 C 52.363281 -96.046875 50.109375 -95.109375 47.640625 -95.109375 C 45.179688 -95.109375 43.6875 -96.101562 43.15625 -98.09375 C 42.632812 -100.09375 42.78125 -102.207031 43.59375 -104.4375 C 46.289062 -111.46875 48.753906 -118 50.984375 -124.03125 C 53.210938 -130.070312 55.410156 -135.929688 57.578125 -141.609375 C 59.742188 -147.296875 61.96875 -153.1875 64.25 -159.28125 C 66.539062 -165.375 69.09375 -172.054688 71.90625 -179.328125 L 73.671875 -179.328125 L 129.921875 -30.765625 C 133.796875 -21.148438 137.429688 -13.910156 140.828125 -9.046875 C 144.222656 -4.191406 148.617188 -1.765625 154.015625 -1.765625 L 154.015625 0 L 96.34375 0 L 96.34375 -1.765625 C 102.550781 -1.765625 107.265625 -2.582031 110.484375 -4.21875 C 113.710938 -5.863281 115.796875 -8.148438 116.734375 -11.078125 C 117.671875 -14.003906 117.785156 -17.398438 117.078125 -21.265625 C 116.378906 -25.140625 115.210938 -29.300781 113.578125 -33.75 L 91.78125 -91.25 C 92.476562 -85.625 92.828125 -78.59375 92.828125 -70.15625 C 92.828125 -55.96875 90.628906 -43.304688 86.234375 -32.171875 C 81.835938 -21.035156 75.507812 -12.300781 67.25 -5.96875 C 58.988281 0.351562 48.992188 3.515625 37.265625 3.515625 C 30.472656 3.515625 24.703125 1.929688 19.953125 -1.234375 C 15.203125 -4.398438 11.566406 -8.585938 9.046875 -13.796875 C 6.535156 -19.015625 5.28125 -24.671875 5.28125 -30.765625 Z M 20.21875 -34.109375 C 20.21875 -25.898438 22.675781 -18.984375 27.59375 -13.359375 C 32.519531 -7.734375 39.265625 -4.921875 47.828125 -4.921875 C 55.203125 -4.921875 61.585938 -6.910156 66.984375 -10.890625 C 72.378906 -14.878906 76.863281 -20.097656 80.4375 -26.546875 C 84.007812 -32.992188 86.675781 -40.023438 88.4375 -47.640625 C 90.195312 -55.265625 91.078125 -62.648438 91.078125 -69.796875 C 91.078125 -76.359375 90.867188 -82.21875 90.453125 -87.375 C 90.046875 -92.53125 89.019531 -97.6875 87.375 -102.84375 L 66.109375 -158.9375 L 45.890625 -105.140625 C 44.710938 -102.085938 44.390625 -99.945312 44.921875 -98.71875 C 45.453125 -97.488281 46.421875 -96.875 47.828125 -96.875 C 49.816406 -96.875 51.75 -97.8125 53.625 -99.6875 C 55.5 -101.5625 57.375 -103.695312 59.25 -106.09375 C 61.125 -108.5 63.085938 -110.640625 65.140625 -112.515625 C 67.191406 -114.390625 69.390625 -115.328125 71.734375 -115.328125 C 73.367188 -115.328125 74.742188 -114.769531 75.859375 -113.65625 C 76.972656 -112.550781 77.53125 -110.820312 77.53125 -108.46875 C 77.53125 -104.601562 76.148438 -101.054688 73.390625 -97.828125 C 70.640625 -94.609375 67.097656 -91.472656 62.765625 -88.421875 C 58.429688 -85.378906 53.800781 -82.160156 48.875 -78.765625 C 43.945312 -75.367188 39.316406 -71.585938 34.984375 -67.421875 C 30.648438 -63.265625 27.101562 -58.488281 24.34375 -53.09375 C 21.59375 -47.707031 20.21875 -41.378906 20.21875 -34.109375 Z M 20.21875 -34.109375 "/></g></g></g><g fill="#dd3577" fill-opacity="1"><g transform="translate(436.404931, 213.962357)"><g><path d="M 5.28125 0 L 5.28125 -1.765625 C 10.3125 -1.765625 13.96875 -3.285156 16.25 -6.328125 C 18.539062 -9.378906 19.976562 -14.359375 20.5625 -21.265625 C 21.15625 -28.179688 21.453125 -37.382812 21.453125 -48.875 L 21.453125 -126.9375 C 21.453125 -138.539062 21.15625 -147.769531 20.5625 -154.625 C 19.976562 -161.476562 18.539062 -166.425781 16.25 -169.46875 C 13.96875 -172.519531 10.3125 -174.046875 5.28125 -174.046875 L 5.28125 -175.8125 L 26.375 -175.8125 C 32.820312 -175.8125 38.710938 -176.101562 44.046875 -176.6875 C 49.378906 -177.28125 54.769531 -177.867188 60.21875 -178.453125 C 65.664062 -179.035156 71.789062 -179.328125 78.59375 -179.328125 C 91.132812 -179.328125 101.738281 -177.1875 110.40625 -172.90625 C 119.082031 -168.632812 125.675781 -162.804688 130.1875 -155.421875 C 134.695312 -148.035156 136.953125 -139.535156 136.953125 -129.921875 C 136.953125 -121.953125 134.867188 -114.453125 130.703125 -107.421875 C 126.546875 -100.390625 120.71875 -94.734375 113.21875 -90.453125 C 105.71875 -86.171875 96.867188 -84.03125 86.671875 -84.03125 C 82.566406 -84.03125 78.753906 -84.585938 75.234375 -85.703125 C 71.722656 -86.816406 68.53125 -88.132812 65.65625 -89.65625 C 62.789062 -91.1875 60.1875 -92.507812 57.84375 -93.625 C 55.5 -94.738281 53.390625 -95.296875 51.515625 -95.296875 C 50.460938 -95.296875 49.347656 -95.03125 48.171875 -94.5 C 47.003906 -93.96875 46.421875 -92.707031 46.421875 -90.71875 C 46.421875 -88.488281 47.707031 -86.492188 50.28125 -84.734375 C 52.863281 -82.984375 56.203125 -81.226562 60.296875 -79.46875 C 64.398438 -77.707031 68.796875 -75.769531 73.484375 -73.65625 C 78.171875 -71.550781 82.679688 -68.972656 87.015625 -65.921875 C 91.359375 -62.878906 94.9375 -59.128906 97.75 -54.671875 C 101.269531 -49.285156 104.90625 -43.515625 108.65625 -37.359375 C 112.40625 -31.203125 116.359375 -25.425781 120.515625 -20.03125 C 124.679688 -14.644531 129.046875 -10.253906 133.609375 -6.859375 C 138.179688 -3.460938 142.988281 -1.765625 148.03125 -1.765625 L 148.03125 0 L 121.140625 0 C 119.140625 0 117.171875 -0.816406 115.234375 -2.453125 C 113.304688 -4.097656 110.9375 -6.882812 108.125 -10.8125 C 105.3125 -14.738281 101.707031 -20.097656 97.3125 -26.890625 C 92.914062 -33.691406 87.257812 -42.3125 80.34375 -52.75 C 76.125 -59.1875 71.90625 -64.28125 67.6875 -68.03125 C 63.46875 -71.789062 59.628906 -74.8125 56.171875 -77.09375 C 52.710938 -79.375 49.925781 -81.539062 47.8125 -83.59375 C 45.707031 -85.644531 44.65625 -88.140625 44.65625 -91.078125 C 44.65625 -93.179688 45.300781 -94.703125 46.59375 -95.640625 C 47.882812 -96.578125 49.289062 -97.046875 50.8125 -97.046875 C 53.382812 -97.046875 55.898438 -96.546875 58.359375 -95.546875 C 60.828125 -94.554688 63.378906 -93.382812 66.015625 -92.03125 C 68.648438 -90.6875 71.550781 -89.515625 74.71875 -88.515625 C 77.882812 -87.523438 81.519531 -87.03125 85.625 -87.03125 C 91.132812 -87.03125 96.113281 -88.257812 100.5625 -90.71875 C 105.019531 -93.175781 108.828125 -96.425781 111.984375 -100.46875 C 115.148438 -104.519531 117.582031 -109.09375 119.28125 -114.1875 C 120.988281 -119.289062 121.84375 -124.476562 121.84375 -129.75 C 121.84375 -139.476562 119.671875 -147.859375 115.328125 -154.890625 C 110.992188 -161.921875 104.84375 -167.34375 96.875 -171.15625 C 88.90625 -174.96875 79.46875 -176.875 68.5625 -176.875 C 62.113281 -176.875 56.488281 -176.429688 51.6875 -175.546875 C 46.882812 -174.671875 41.785156 -173.234375 36.390625 -171.234375 L 36.390625 -48.875 C 36.390625 -37.382812 36.679688 -28.179688 37.265625 -21.265625 C 37.859375 -14.359375 39.296875 -9.378906 41.578125 -6.328125 C 43.867188 -3.285156 47.53125 -1.765625 52.5625 -1.765625 L 52.5625 0 Z M 5.28125 0 "/></g></g></g><path fill="#dd3577" d="M 552.542969 113.878906 C 572.582031 113.878906 588.828125 97.632812 588.828125 77.59375 C 588.828125 57.554688 572.582031 41.308594 552.542969 41.308594 C 532.503906 41.308594 516.257812 57.554688 516.257812 77.59375 C 516.257812 97.632812 532.503906 113.878906 552.542969 113.878906 " fill-opacity="1" fill-rule="nonzero"/><g clip-path="url(#f9a1ab53ef)"><path fill="#dd3577" d="M 502.21875 77.597656 C 522.261719 77.597656 538.503906 61.351562 538.503906 41.3125 C 538.503906 21.273438 522.261719 5.03125 502.21875 5.03125 C 482.179688 5.03125 465.9375 21.273438 465.9375 41.3125 C 465.9375 61.351562 482.179688 77.597656 502.21875 77.597656 " fill-opacity="1" fill-rule="nonzero"/></g><g clip-path="url(#7945e2ee11)"><path fill="#dd3577" d="M 451.65625 113.878906 C 471.695312 113.878906 487.941406 97.632812 487.941406 77.59375 C 487.941406 57.554688 471.695312 41.308594 451.65625 41.308594 C 431.617188 41.308594 415.371094 57.554688 415.371094 77.59375 C 415.371094 97.632812 431.617188 113.878906 451.65625 113.878906 " fill-opacity="1" fill-rule="nonzero"/></g><path fill="#dd3577" d="M 469.183594 168.433594 C 489.222656 168.433594 505.464844 152.1875 505.464844 132.148438 C 505.464844 112.109375 489.222656 95.863281 469.183594 95.863281 C 449.140625 95.863281 432.898438 112.109375 432.898438 132.148438 C 432.898438 152.1875 449.140625 168.433594 469.183594 168.433594 " fill-opacity="1" fill-rule="nonzero"/><path fill="#dd3577" d="M 534.894531 168.433594 C 554.933594 168.433594 571.179688 152.1875 571.179688 132.148438 C 571.179688 112.109375 554.933594 95.863281 534.894531 95.863281 C 514.855469 95.863281 498.613281 112.109375 498.613281 132.148438 C 498.613281 152.1875 514.855469 168.433594 534.894531 168.433594 " fill-opacity="1" fill-rule="nonzero"/><path fill="#ffffff" d="M 502.105469 130.304688 C 522.664062 130.304688 539.328125 113.640625 539.328125 93.082031 C 539.328125 72.527344 522.664062 55.859375 502.105469 55.859375 C 481.550781 55.859375 464.882812 72.527344 464.882812 93.082031 C 464.882812 113.640625 481.550781 130.304688 502.105469 130.304688 " fill-opacity="1" fill-rule="nonzero"/></svg>